<?xml version="1.0" encoding="utf-8"?>
<svg width="1120px" height="492px" viewBox="0 0 1120 492" version="1.1" xmlns:xlink="http://www.w3.org/1999/xlink" xmlns="http://www.w3.org/2000/svg">
  <path d="M203.2 0L94 43L0 210L105.664 210L135.467 150L136.144 210L254 210L274 43L203.2 0Z" transform="translate(294 0)" id="New-shape-5" fill="#00B0F0" fill-rule="evenodd" stroke="none" />
  <path d="M200 0L79 43L0 210L99.0001 210L133.333 150L129 210L250 210C250 210 221.5 125.5 209 72.9996C196.5 20.4996 200 0 200 0Z" transform="matrix(-1 0 0 1 797 0.00036621094)" id="New-shape-5-Copy" fill="#00B0F0" fill-rule="evenodd" stroke="none" />
  <g id="TailorMobile" fill="#00B0F0" transform="translate(0 191.30005)">
    <path d="M897.168 120.752Q897.168 141.26 885.449 155.029Q872.949 169.678 852.832 169.678Q838.184 169.678 829.199 161.279Q828.516 160.693 828.027 160.693Q827.051 160.693 826.221 164.307Q825.391 167.92 824.219 168.311Q822.559 168.799 796.387 168.799Q790.234 168.799 790.234 166.553Q790.234 166.26 790.43 165.088Q792.383 149.561 792.383 105.908Q792.383 64.209 789.453 33.3496L789.355 32.2754Q789.355 30.7129 792.383 30.5176Q794.531 30.4199 809.375 29.0527Q819.824 28.0762 826.367 28.0762Q828.223 28.0762 828.223 31.2988Q828.223 35.1074 827.734 41.3574Q827.148 49.0723 827.051 51.5137Q826.563 61.1816 826.563 77.8809Q826.563 80.2714 827.537 80.7742Q827.796 80.9082 828.125 80.9082Q828.906 80.9082 829.59 80.127Q838.379 70.752 852.637 70.752Q874.023 70.752 886.035 85.3027Q897.168 98.7793 897.168 120.752ZM101.953 63.3301Q104.102 63.3301 104.102 61.377Q104.102 59.0332 103.467 54.2969Q102.832 49.5606 102.832 47.1191Q102.832 44.9707 103.027 39.7949Q103.223 35.1074 103.223 32.4707Q103.125 30.8106 102.832 30.5664Q102.539 30.3223 100.586 30.3223Q100.488 30.3223 87.793 31.2988Q64.1602 33.1543 55.3711 33.1543Q24.4141 33.1543 8.59375 31.1035Q7.42187 31.0059 7.22656 31.0059Q5.56641 31.0059 4.88281 38.3301Q4.49219 42.9199 4.19922 47.5098Q4.00391 48.9746 2.44141 55.8105Q1.07422 62.0605 1.07422 63.3301Q1.07422 63.6044 1.19751 63.8017Q1.51312 64.3066 2.63672 64.3066Q14.2578 64.3066 33.7891 62.3535Q34.5703 88.7207 34.5703 96.3379Q34.5703 107.861 33.5938 130.908Q32.6172 153.955 32.6172 165.479Q32.6172 168.018 35.3516 168.506Q40.4297 169.287 53.0273 169.287Q64.3555 169.287 70.2148 168.506Q72.6563 168.213 72.9492 168.018Q73.8281 167.529 73.8281 165.674Q73.8281 154.15 72.9004 131.006Q71.9727 107.861 71.9727 96.3379Q71.9727 86.5723 72.5586 61.8652Q98.2422 63.3301 101.953 63.3301ZM668.066 165.479Q668.066 168.506 665.234 168.506L630.664 168.506Q627.832 168.506 627.832 165.088Q627.832 155.225 628.564 135.498Q629.297 115.771 629.297 105.908Q629.297 103.076 628.418 102.881Q627.344 103.467 615.332 133.057Q608.301 150.439 601.27 167.725Q600.293 169.971 598.828 170.361Q598.34 170.459 594.922 170.459Q589.844 170.459 588.867 168.506Q583.594 157.764 575 137.256Q565.82 115.576 561.23 105.908Q561.035 105.42 560.352 104.834Q559.668 105.713 559.668 107.666Q559.668 117.236 560.156 136.377Q560.645 155.518 560.645 165.088Q560.645 168.506 557.91 168.506L525.293 168.506C523.991 168.506 523.193 168.294 522.9 167.871Q522.461 167.236 522.461 165.674Q522.461 155.029 523.486 133.691Q524.512 112.354 524.512 101.709Q524.512 90.3809 523.535 59.2285Q523.438 51.1231 522.656 35.1074L522.559 33.4473Q522.54 33.076 522.677 32.7754Q523.259 31.4942 526.66 31.4941Q532.031 31.4941 542.773 31.1523Q553.516 30.8106 558.887 30.8105Q559.961 30.8105 561.914 34.9121L590.43 97.5098Q593.457 103.857 595.508 103.857Q596.582 103.857 600.098 96.5332Q609.961 76.0254 629.297 34.7168Q630.957 30.9082 632.91 30.9082Q635.742 30.9082 641.455 31.2012Q647.168 31.4941 650.098 31.4941Q652.539 31.4941 657.568 31.0059Q662.598 30.5176 665.039 30.5176Q667.969 30.5176 667.969 32.8613Q667.969 44.3848 667.139 67.2852Q666.309 90.1856 666.309 101.709Q666.309 112.354 667.188 133.643Q668.066 154.932 668.066 165.479ZM322.168 150.635Q321.973 136.377 321.973 109.717Q321.973 77.2949 324.512 35.1074L324.609 33.3496Q324.692 32.482 324.303 31.9814Q323.772 31.2988 322.363 31.2988L287.5 31.2988Q284.961 31.2988 284.961 33.4473Q284.961 34.0332 285.156 35.1074Q287.305 50.7324 287.598 72.3145Q287.59 72.0219 287.582 72.0219Q287.5 72.0221 287.5 109.717Q287.5 118.311 287.305 135.645Q287.109 152.979 287.109 161.67L287.109 165.869Q287.402 168.018 289.551 168.506Q292.773 169.287 304.492 169.287Q315.918 169.287 320.313 168.506Q322.754 168.115 322.754 166.064Q322.754 163.33 322.461 158.35Q322.168 152.881 322.168 150.635ZM999.609 109.717Q999.609 136.377 999.805 150.635Q999.805 152.881 1000.1 158.35Q1000.39 163.33 1000.39 166.064Q1000.39 168.115 997.949 168.506Q993.555 169.287 982.129 169.287Q970.41 169.287 967.188 168.506Q965.039 168.018 964.746 165.869L964.746 161.67Q964.746 152.979 964.941 135.645Q965.137 118.311 965.137 109.717Q965.137 72.0221 965.219 72.0219L965.234 72.3145Q964.941 50.7324 962.793 35.1074Q962.598 34.0332 962.598 33.4473Q962.598 31.2988 965.137 31.2988L1000 31.2988Q1001.41 31.2988 1001.94 31.9814Q1002.33 32.482 1002.25 33.3496L1002.15 35.1074Q999.609 77.2949 999.609 109.717ZM270.117 51.123Q270.117 68.1152 250.977 68.1152Q242.773 68.1152 237.402 63.8184Q231.543 59.1309 231.543 51.123Q231.543 43.5059 237.598 38.623Q243.164 34.1309 250.977 34.1309Q258.594 34.1309 264.16 38.7207Q270.117 43.6035 270.117 51.123ZM928.613 68.1152Q947.754 68.1152 947.754 51.123Q947.754 43.6035 941.797 38.7207Q936.23 34.1309 928.613 34.1309Q920.801 34.1309 915.234 38.623Q909.18 43.5059 909.18 51.123Q909.18 59.1309 915.039 63.8184Q920.41 68.1152 928.613 68.1152ZM1100.59 126.709Q1106.93 125.342 1106.93 115.479Q1106.93 96.6309 1093.85 82.959Q1080.76 69.2871 1062.01 69.2871Q1039.75 69.2871 1026.27 84.1309Q1013.18 98.4863 1013.18 120.947Q1013.18 143.994 1027.83 157.764Q1042.09 171.338 1065.33 171.338Q1090.43 171.338 1102.34 158.545Q1103.81 156.982 1103.81 156.299Q1103.81 153.857 1098.97 144.873Q1094.14 135.889 1092.09 134.912L1084.67 139.6Q1075.88 144.287 1067.19 144.287Q1059.96 144.287 1054.3 141.553Q1047.36 138.232 1046 131.885Q1068.85 130.127 1080.37 128.857Q1099.51 126.904 1100.59 126.709ZM433.789 120.459Q433.789 142.725 420.166 156.592Q406.543 170.459 384.375 170.459Q362.891 170.459 349.023 156.787Q335.156 143.115 335.156 121.631Q335.156 98.9746 348.438 84.8633Q361.719 70.752 384.375 70.752Q406.445 70.752 420.117 84.5703Q433.789 98.3887 433.789 120.459ZM765.869 156.592Q779.492 142.725 779.492 120.459Q779.492 98.3887 765.82 84.5703Q752.148 70.752 730.078 70.752Q707.422 70.752 694.141 84.8633Q680.859 98.9746 680.859 121.631Q680.859 143.115 694.727 156.787Q708.594 170.459 730.078 170.459Q752.246 170.459 765.869 156.592ZM212.891 142.041Q212.012 127.197 212.012 119.678Q212.012 99.9512 215.137 82.2754Q215.43 80.6152 215.43 80.2246Q215.43 79.248 213.965 78.6621Q209.766 77.2949 200.098 75.3418Q189.941 73.291 186.328 73.291Q184.766 73.291 183.643 78.0273Q182.52 82.7637 181.641 82.7637Q181.348 82.7637 180.957 82.2754Q172.07 71.5332 156.738 71.5332Q134.668 71.5332 121.973 85.791Q109.766 99.5605 109.766 122.119Q109.766 141.65 121.582 155.713Q134.082 170.752 153.125 170.752Q165.625 170.752 176.563 159.717Q177.832 158.447 178.613 158.057Q179.492 158.154 180.127 163.77Q180.762 169.385 182.617 169.385Q198.242 169.385 210.352 168.506Q213.77 168.213 213.77 164.307Q213.77 156.885 212.891 142.041ZM506.152 111.475Q510.352 111.475 510.352 107.666Q510.352 105.811 510.156 100.049Q510.059 95.3613 510.059 92.5293Q510.156 90.0879 510.742 84.5215Q511.328 79.3457 511.328 76.5137Q511.328 74.1699 505.859 74.1699Q497.168 74.1699 487.793 79.2969Q479.39 83.8924 479.617 84.3687Q479.633 84.4019 479.691 84.4151Q478.497 84.1921 478.027 78.2715Q477.539 72.1192 475.781 72.1191Q475.293 72.1191 459.863 75.1465Q449.512 76.709 444.141 77.2949Q442.676 77.7832 442.676 79.248Q442.676 79.834 442.871 80.7129Q447.07 95.5566 447.07 118.506Q447.07 126.318 446.973 141.895Q446.875 157.471 446.875 165.283Q446.875 168.115 450.098 168.506Q455.664 169.092 464.941 169.092Q474.609 169.092 479.297 168.701Q482.52 168.408 482.52 166.064Q482.52 163.33 482.129 157.715Q481.738 152.1 481.738 149.268Q481.738 145.068 481.592 136.523Q481.445 127.979 481.445 123.779Q481.445 116.064 484.375 113.525Q487.305 110.986 495.41 110.986Q497.168 110.986 500.732 111.23Q504.297 111.475 506.152 111.475ZM267.578 123.682Q267.578 130.811 267.871 144.922Q268.164 159.033 268.164 166.064Q268.164 168.115 265.723 168.506Q262.402 169.092 250.781 169.092Q239.063 169.092 235.742 168.506Q233.594 168.115 233.105 167.236Q232.91 166.846 232.91 164.307Q232.91 157.568 233.203 144.043Q233.496 130.518 233.496 123.682Q233.496 95.9473 231.348 79.541Q231.152 77.9785 231.152 77.4902Q231.152 75.5371 233.789 75.5371Q236.523 75.5371 242.139 76.123Q247.754 76.709 250.586 76.709Q253.418 76.709 259.082 76.2207Q264.746 75.7324 267.578 75.7324Q269.922 75.7324 269.922 77.6855Q269.922 78.0762 269.727 79.541Q267.578 98.584 267.578 123.682ZM945.508 144.922Q945.215 130.811 945.215 123.682Q945.215 98.584 947.363 79.541Q947.559 78.0762 947.559 77.6855Q947.559 75.7324 945.215 75.7324Q942.383 75.7324 936.719 76.2207Q931.055 76.709 928.223 76.709Q925.391 76.709 919.775 76.123Q914.16 75.5371 911.426 75.5371Q908.789 75.5371 908.789 77.4902Q908.789 77.9785 908.984 79.541Q911.133 95.9473 911.133 123.682Q911.133 130.518 910.84 144.043Q910.547 157.568 910.547 164.307Q910.547 166.846 910.742 167.236Q911.23 168.115 913.379 168.506Q916.699 169.092 928.418 169.092Q940.039 169.092 943.359 168.506Q945.801 168.115 945.801 166.064Q945.801 159.033 945.508 144.922ZM1068.46 98.877Q1072.75 103.467 1072.75 109.521Q1072.75 110.596 1069.53 111.084Q1054.3 113.33 1047.07 113.33Q1044.34 113.33 1044.34 110.693Q1044.34 104.248 1048.05 99.4629Q1052.05 94.2871 1058.2 94.2871Q1064.16 94.2871 1068.46 98.877ZM861.816 119.678Q861.816 111.572 856.836 105.957Q851.855 100.342 843.848 100.342Q835.645 100.342 830.908 105.957Q826.172 111.572 826.172 119.873Q826.172 128.467 830.762 133.74Q835.645 139.307 844.043 139.307Q852.344 139.307 857.227 133.545Q861.816 128.174 861.816 119.678ZM401.758 120.459Q401.758 112.744 396.973 106.836Q392.188 100.928 384.57 100.928Q376.855 100.928 371.875 106.982Q367.188 112.646 367.188 120.459Q367.188 128.369 371.875 134.033Q376.855 140.088 384.57 140.088Q392.188 140.088 397.168 134.033Q401.758 128.369 401.758 120.459ZM742.676 106.836Q747.461 112.744 747.461 120.459Q747.461 128.369 742.871 134.033Q737.891 140.088 730.273 140.088Q722.559 140.088 717.578 134.033Q712.891 128.369 712.891 120.459Q712.891 112.646 717.578 106.982Q722.559 100.928 730.273 100.928Q737.891 100.928 742.676 106.836ZM175.342 106.543Q180.566 111.963 180.566 120.264Q180.566 128.662 175.293 134.082Q170.02 139.502 161.719 139.502Q153.906 139.502 148.438 133.838Q142.969 128.174 142.969 120.264Q142.969 111.865 148.145 106.494Q153.32 101.123 161.719 101.123Q170.117 101.123 175.342 106.543Z" />
  </g>
  <path d="M10 0L250 0L250 0L260 90L140 120L0 90L10 0Z" transform="translate(418 372)" id="New-shape-6" fill="#00B0F0" fill-rule="evenodd" stroke="none" />
</svg>